<svg xmlns="http://www.w3.org/2000/svg" viewBox="0 0 100 100" width="100" height="100">
  <!-- Fundo do kiwi (exterior verde) -->
  <circle cx="50" cy="50" r="48" fill="#6B8E23" stroke="#5A7319" stroke-width="2"/>

  <!-- Corpo do kiwi (interior verde-claro) -->
  <circle cx="50" cy="50" r="42" fill="#A4C639"/>

  <!-- Sementes pretas -->
  <circle cx="35" cy="40" r="2.5" fill="#1a1a1a"/>
  <circle cx="50" cy="35" r="2.5" fill="#1a1a1a"/>
  <circle cx="65" cy="40" r="2.5" fill="#1a1a1a"/>
  <circle cx="42" cy="52" r="2.5" fill="#1a1a1a"/>
  <circle cx="58" cy="52" r="2.5" fill="#1a1a1a"/>
  <circle cx="35" cy="65" r="2.5" fill="#1a1a1a"/>
  <circle cx="50" cy="70" r="2.5" fill="#1a1a1a"/>
  <circle cx="65" cy="65" r="2.5" fill="#1a1a1a"/>

  <!-- Olho esquerdo (branco) -->
  <circle cx="38" cy="43" r="6" fill="white"/>
  <circle cx="38" cy="43" r="4" fill="#2c3e50"/>
  <circle cx="39" cy="41" r="1.5" fill="white"/>

  <!-- Olho direito (branco) -->
  <circle cx="62" cy="43" r="6" fill="white"/>
  <circle cx="62" cy="43" r="4" fill="#2c3e50"/>
  <circle cx="63" cy="41" r="1.5" fill="white"/>

  <!-- Sobrancelha esquerda -->
  <path d="M 32 38 Q 38 35 44 37" stroke="#5A7319" stroke-width="2" fill="none" stroke-linecap="round"/>

  <!-- Sobrancelha direita -->
  <path d="M 56 37 Q 62 35 68 38" stroke="#5A7319" stroke-width="2" fill="none" stroke-linecap="round"/>

  <!-- Boca (sorriso) -->
  <path d="M 42 60 Q 50 66 58 60" stroke="#5A7319" stroke-width="2.5" fill="none" stroke-linecap="round"/>

  <!-- Blush esquerdo -->
  <ellipse cx="28" cy="55" rx="4" ry="5" fill="#E8A5C1" opacity="0.7"/>

  <!-- Blush direito -->
  <ellipse cx="72" cy="55" rx="4" ry="5" fill="#E8A5C1" opacity="0.7"/>
</svg>